<svg width="139" height="139" viewBox="0 0 139 139" fill="none" xmlns="http://www.w3.org/2000/svg">
<rect width="139" height="139" rx="24" fill="#4E4CAD"/>
<g clip-path="url(#clip0)">
<path d="M71.7591 65.7436C72.5488 66.5312 72.5505 67.808 71.7629 68.5977C70.9773 69.3854 69.7005 69.387 68.9108 68.6014C68.1231 67.8138 68.1215 66.537 68.9071 65.7474C69.6947 64.9597 70.9715 64.958 71.7591 65.7436Z" fill="white"/>
<path d="M97.3982 40.0391C101.344 43.9752 101.353 50.3554 97.417 54.3021C93.4912 58.2382 87.0932 58.2468 83.1538 54.3202C79.2187 50.393 79.2087 43.995 83.1355 40.0578C87.0712 36.1118 93.4516 36.1026 97.3982 40.0391ZM85.9919 42.9066C83.6363 45.2682 83.6413 49.1074 86.0027 51.464C88.3662 53.8198 92.2054 53.8149 94.5608 51.4531C96.9222 49.0855 96.9176 45.2572 94.5495 42.8953C92.1821 40.5339 88.3536 40.5385 85.9919 42.9066Z" fill="white"/>
<path d="M120.189 17.1891C120.586 17.5848 120.801 18.125 120.78 18.687C120.765 19.1431 120.342 30.0023 115.797 42.9162C112.159 53.2643 106.941 61.8925 100.29 68.5612C98.7994 70.0556 97.2187 71.5099 95.5765 72.9016C99.4614 79.4817 98.2529 84.7602 96.472 88.0985C92.3714 95.7849 81.2163 100.554 73.2329 100.564C72.4173 100.565 71.681 100.074 71.368 99.3211C71.2642 99.0717 71.2136 98.8096 71.2133 98.5498C71.2126 98.0248 71.417 97.5087 71.8022 97.1224C75.8476 93.0663 75.5877 88.0703 75.371 86.4384L74.6637 85.7329C71.3576 87.1274 68.0697 88.2516 64.8716 89.0771C63.7142 89.3751 62.489 89.2767 61.3677 88.8375C60.4753 90.7806 59.1637 92.6559 57.5345 94.2895C52.3491 99.4883 39.6969 100.559 39.1608 100.602C38.5725 100.649 37.993 100.437 37.5751 100.02C37.195 99.6407 36.9831 99.1273 36.9824 98.5948C36.9824 98.5419 36.9843 98.4889 36.9885 98.4358C37.0299 97.8996 38.0676 85.2443 43.2528 80.0454C44.8814 78.4125 46.7531 77.0962 48.6935 76.1987C48.2254 75.0129 48.1663 73.7919 48.4462 72.6934C49.2632 69.4946 50.3783 66.2041 51.7643 62.894L51.057 62.1886C49.4243 61.9763 44.4276 61.7295 40.3826 65.7854C39.8065 66.3629 38.9392 66.5367 38.1852 66.2254C37.431 65.9144 36.9387 65.1796 36.9377 64.3637C36.9272 56.3804 41.6668 45.2129 49.3424 41.0922C52.6756 39.3025 57.951 38.0801 64.5414 41.9478C65.9282 40.3027 67.3784 38.718 68.8694 37.2231C75.5209 30.5541 84.1353 25.3143 94.473 21.6487C107.376 17.0692 118.234 16.6187 118.69 16.6017C119.249 16.5808 119.792 16.7937 120.189 17.1891ZM77.5654 96.049C83.6275 94.7881 90.2767 91.14 92.9129 86.1989C94.6743 82.8969 94.4965 79.2905 92.3923 75.4585C88.1 78.7311 83.4746 81.5774 78.5895 83.9512C78.6081 83.9812 79.065 84.3437 79.218 85.018C79.2811 85.2952 80.436 90.6305 77.5654 96.049ZM46.1092 82.8942C43.3394 85.6712 41.8853 92.179 41.2934 96.2919C45.4049 95.6891 51.9087 94.2176 54.6783 91.4407C56.2293 89.8856 57.4045 88.0832 58.0653 86.2723L51.2687 79.4935C49.4595 80.1591 47.6603 81.3388 46.1092 82.8942ZM52.3553 73.6903C52.2066 74.2743 52.427 74.9501 52.9295 75.4521C55.5423 78.0581 56.5645 79.0775 56.885 79.3974C57.4731 79.984 58.9154 81.4225 62.1012 84.5997C62.6059 85.1021 63.2821 85.3207 63.8646 85.1709C66.3798 84.5215 68.9601 83.6732 71.5649 82.6423L54.8633 65.9844C53.839 68.5924 52.9977 71.1745 52.3553 73.6903ZM51.2506 44.6459C46.3166 47.295 42.6858 53.9536 41.441 60.0188C45.0766 58.0807 49.7073 57.6484 52.5165 58.3511C53.169 58.5142 53.4976 58.9394 53.5361 58.9631C55.8971 54.0722 58.7312 49.4396 61.9925 45.1382C58.1546 43.0442 54.5473 42.876 51.2506 44.6459ZM71.7256 40.0714C69.9107 41.8913 68.1574 43.8507 66.5148 45.8953C62.5679 50.8103 59.2264 56.2187 56.5682 61.9877L75.5568 80.9268C81.3191 78.2535 86.7187 74.8978 91.6228 70.9384C93.6644 69.289 95.6194 67.5308 97.4336 65.7117C103.401 59.7284 108.147 52.0103 111.558 42.7654L94.6349 25.8866C85.3992 29.3217 77.6936 34.0875 71.7256 40.0714ZM98.8871 24.4298L113.004 38.5094C115.379 30.8253 116.264 24.1419 116.581 20.8062C113.245 21.1319 106.564 22.0342 98.8871 24.4298Z" fill="white"/>
<path d="M37.5381 71.4949C38.3268 72.2819 38.3281 73.5591 37.5415 74.3476L31.8428 80.0592C31.056 80.8477 29.7788 80.8492 28.9903 80.0626C28.2019 79.2756 28.2002 77.9984 28.987 77.2099L34.6857 71.4983C35.4725 70.7098 36.7497 70.7083 37.5381 71.4949Z" fill="white"/>
<path d="M66.1 99.9815C66.8889 100.768 66.8905 102.045 66.1041 102.834L60.4075 108.548C59.6211 109.336 58.3439 109.338 57.555 108.552C56.7666 107.766 56.7641 106.489 57.5509 105.699L63.2475 99.9858C64.0339 99.197 65.3111 99.1951 66.1 99.9815Z" fill="white"/>
<path d="M34.7026 85.7606C35.4913 86.5468 35.493 87.8242 34.7066 88.6131L21.0632 102.294C20.2766 103.083 18.9995 103.085 18.2108 102.298C17.4221 101.512 17.42 100.235 18.2068 99.4458L31.8502 85.7646C32.6368 84.9757 33.9139 84.974 34.7026 85.7606Z" fill="white"/>
<path d="M34.7238 101.897C35.5125 102.683 35.5142 103.961 34.7278 104.749L21.0844 118.43C20.2978 119.219 19.0206 119.221 18.2319 118.434C17.4433 117.648 17.4412 116.371 18.228 115.582L31.8713 101.901C32.6579 101.112 33.9351 101.11 34.7238 101.897Z" fill="white"/>
<path d="M51.842 102.855C52.6305 103.641 52.6322 104.919 51.8455 105.707L38.2002 119.386C37.4134 120.175 36.1364 120.177 35.3475 119.39C34.5589 118.603 34.5572 117.326 35.344 116.538L48.9893 102.858C49.7761 102.07 51.0531 102.068 51.842 102.855Z" fill="white"/>
<path d="M80.3065 57.176C81.0952 57.9628 81.0969 59.2395 80.3103 60.0286L77.4619 62.8844C76.6753 63.6731 75.3982 63.6748 74.6093 62.8882C73.8206 62.1014 73.8189 60.8244 74.6055 60.0355L77.4538 57.1797C78.2405 56.391 79.5176 56.3893 80.3065 57.176Z" fill="white"/>
</g>
<defs>
<clipPath id="clip0">
<rect width="103.272" height="103.272" fill="white" transform="matrix(-0.00131355 -0.999999 -0.999999 0.00131355 120.915 119.869)"/>
</clipPath>
</defs>
</svg>
