<svg width="123" height="71" viewBox="0 0 123 71" fill="none" xmlns="http://www.w3.org/2000/svg">
<path d="M27.636 35.0637C27.0856 35.0631 26.6395 35.509 26.6389 36.0604C26.6383 36.6104 27.0834 37.0572 27.6332 37.0585C28.1829 37.0584 28.629 36.6125 28.6303 36.0618C28.6302 35.5111 28.1851 35.0643 27.636 35.0637Z" fill="white"/>
<path d="M27.5079 13.9884C24.0089 13.9847 21.1736 16.8186 21.1698 20.3237C21.166 23.8196 24.0029 26.6676 27.4946 26.6725C30.9847 26.6752 33.8285 23.834 33.8322 20.3372C33.836 16.8326 31.0071 13.992 27.5079 13.9884ZM31.2997 20.3344C31.2976 22.432 29.5915 24.1373 27.4972 24.1356C25.4024 24.1327 23.6999 22.4239 23.7023 20.3263C23.7045 18.2235 25.4055 16.5229 27.5051 16.5251C29.6043 16.5273 31.3021 18.2313 31.2997 20.3344Z" fill="white"/>
<path d="M27.6707 3.39765e-07C27.3944 -0.000226738 27.1309 0.113378 26.942 0.316921C26.7885 0.48181 23.1489 4.42447 20.2314 10.5255C17.8922 15.4131 16.7036 20.2511 16.6987 24.9052C16.6976 25.9481 16.7419 27.0086 16.8295 28.0686C13.1795 29.0112 11.7604 31.2781 11.2176 33.0669C9.96777 37.1857 12.1966 42.7491 14.9783 45.5415C15.2627 45.8266 15.6907 45.9124 16.0625 45.7585C16.1857 45.7076 16.2947 45.6337 16.3855 45.543C16.5688 45.3597 16.6774 45.108 16.6778 44.8384C16.6808 42.0077 18.5137 40.3524 19.1584 39.8578L19.6512 39.8583C20.3184 41.5006 21.0734 43.042 21.9014 44.4477C22.2012 44.9561 22.663 45.3497 23.2074 45.5879C22.8411 46.5787 22.6448 47.6923 22.6435 48.8323C22.6397 52.4607 26.6805 57.2546 26.8525 57.4569C27.0413 57.6789 27.3177 57.8071 27.6088 57.8074C27.8737 57.8076 28.1266 57.7021 28.3126 57.5163C28.331 57.4978 28.3489 57.4786 28.3659 57.4586C28.5384 57.2568 32.5896 52.4714 32.5935 48.8431C32.5947 47.7035 32.4008 46.5897 32.0367 45.5982C32.6136 45.3473 33.06 44.9412 33.3454 44.4595C34.1759 43.0562 34.9343 41.5167 35.605 39.8756L36.0978 39.8762C36.7414 40.3723 38.5708 42.0315 38.5677 44.862C38.5673 45.2651 38.8093 45.6288 39.1809 45.7834C39.5525 45.9381 39.9805 45.8533 40.2654 45.5686C43.053 42.7821 45.2937 37.2236 44.0528 33.1021C43.514 31.3123 42.0998 29.0423 38.4517 28.0918C38.5415 27.0325 38.5882 25.9721 38.5893 24.9287C38.5943 20.2745 37.416 15.434 35.0876 10.5417C32.183 4.43413 28.5518 0.483639 28.3987 0.31849C28.2107 0.115669 27.947 0.000368359 27.6707 3.39765e-07ZM15.0413 42.45C13.366 39.8917 12.3184 36.2941 13.1217 33.6463C13.6587 31.877 14.9783 30.6787 17.0488 30.0745C17.4051 32.7177 18.0263 35.3281 18.9029 37.8642C18.8859 37.8682 18.6001 37.8353 18.3116 38.0175C18.1929 38.0924 15.9294 39.5536 15.0413 42.45ZM30.6035 48.8409C30.6014 50.779 28.8393 53.5614 27.6116 55.2056C26.3873 53.5586 24.6314 50.7724 24.6335 48.8345C24.6346 47.7492 24.8531 46.7088 25.2541 45.845L29.9893 45.8501C30.3884 46.7147 30.6047 47.7555 30.6035 48.8409ZM31.6339 43.4424C31.4821 43.6984 31.1696 43.8576 30.8192 43.8575C28.9989 43.8556 28.2867 43.8548 28.0633 43.8546C27.6536 43.8542 26.6488 43.8531 24.4293 43.8506C24.078 43.8499 23.7659 43.6901 23.6149 43.4342C22.9638 42.3287 22.3594 41.1309 21.8101 39.8606L33.4461 39.8732C32.894 41.1424 32.2871 42.3387 31.6339 43.4424ZM42.1478 33.6776C42.9454 36.327 41.8902 39.9224 40.2094 42.4769C39.6168 40.5296 38.152 38.7609 36.9268 38.0252C36.6423 37.8542 36.3794 37.8881 36.3577 37.8829C37.2395 35.3488 37.8662 32.7398 38.2284 30.0973C40.2976 30.7061 41.6148 31.9074 42.1478 33.6776ZM36.5995 24.9264C36.5981 26.1965 36.5265 27.4937 36.3866 28.7821C36.0496 31.8786 35.3294 34.936 34.245 37.8808L21.0156 37.8667C19.9374 34.9195 19.2238 31.8605 18.8936 28.7636C18.7564 27.474 18.6874 26.1766 18.6889 24.9071C18.6933 20.7313 19.7291 16.3762 21.7629 11.9536L33.5533 11.9663C35.5776 16.393 36.6041 20.7504 36.5995 24.9264ZM32.5777 9.97178L22.7427 9.96119C24.5935 6.4458 26.6155 3.80104 27.6683 2.52459C28.7184 3.80359 30.7347 6.45276 32.5777 9.97178Z" fill="white"/>
<path d="M37.569 47.8511C37.0194 47.8506 36.5736 48.2965 36.5731 48.8469L36.5695 52.8337C36.569 53.3841 37.0141 53.8308 37.5635 53.8313C38.1131 53.8317 38.559 53.3859 38.5595 52.8355L38.563 48.8487C38.5635 48.2983 38.1184 47.8516 37.569 47.8511Z" fill="white"/>
<path d="M17.6702 47.8296C17.1207 47.8288 16.6748 48.2745 16.674 48.825L16.669 52.8118C16.6683 53.3622 17.1132 53.809 17.6627 53.8098C18.2119 53.8104 18.6581 53.365 18.6588 52.8143L18.6638 48.8275C18.6646 48.2771 18.2196 47.8303 17.6702 47.8296Z" fill="white"/>
<path d="M33.5835 53.8273C33.0342 53.8266 32.5882 54.2724 32.5874 54.8228L32.5765 64.3702C32.5758 64.9207 33.0208 65.3674 33.5703 65.368C34.1196 65.3687 34.5658 64.923 34.5664 64.3725L34.5774 54.8251C34.578 54.2746 34.133 53.8279 33.5835 53.8273Z" fill="white"/>
<path d="M27.9491 59.4593C27.3997 59.4586 26.9536 59.9045 26.953 60.4548L26.942 70.0022C26.9414 70.5527 27.3864 70.9994 27.9359 71C28.4852 71.0007 28.9314 70.555 28.932 70.0045L28.9429 60.4571C28.9436 59.9066 28.4986 59.4599 27.9491 59.4593Z" fill="white"/>
<path d="M21.6427 53.8144C21.0933 53.8138 20.6473 54.2596 20.6467 54.81L20.6372 64.3574C20.6366 64.9079 21.0816 65.3545 21.6312 65.3551C22.1807 65.3557 22.6266 64.91 22.6271 64.3595L22.6367 54.8121C22.6372 54.2616 22.1923 53.815 21.6427 53.8144Z" fill="white"/>
<path d="M27.641 30.2614C27.0914 30.2608 26.6456 30.7065 26.6449 31.257L26.6427 33.2501C26.6421 33.8005 27.0871 34.2472 27.6367 34.2479C28.1862 34.2484 28.6321 33.8027 28.6328 33.2522L28.6349 31.2592C28.6355 30.7088 28.1905 30.262 27.641 30.2614Z" fill="white"/>
<path d="M0 27.8413L3.19431 12.7959H9.54063C10.2881 12.7959 10.9298 12.9937 11.4657 13.3892C12.0157 13.7848 12.4317 14.3004 12.7138 14.9362C13.01 15.5719 13.158 16.2429 13.158 16.9493C13.158 17.6698 13.0029 18.3761 12.6926 19.0683C12.3824 19.7606 11.9593 20.3822 11.4234 20.9331C10.8875 21.4841 10.281 21.9008 9.60409 22.1834L11.6349 27.8413H8.33483L6.55786 22.7979H3.95587L2.89815 27.8413H0ZM7.86944 20.2338C8.25021 20.2338 8.61689 20.0926 8.96946 19.81C9.32204 19.5275 9.60409 19.1602 9.81564 18.7081C10.0413 18.256 10.1541 17.7686 10.1541 17.2459C10.1541 16.7091 10.0201 16.2641 9.75218 15.9109C9.49832 15.5436 9.18101 15.36 8.80023 15.36H5.54245L4.50589 20.2338H7.86944Z" fill="white"/>
<path d="M47.4194 27.9684C46.5027 27.9684 45.6988 27.7919 45.0078 27.4387C44.3167 27.0855 43.7315 26.6122 43.252 26.0189C42.7866 25.4114 42.434 24.7333 42.1943 23.9846C41.9545 23.2217 41.8346 22.4377 41.8346 21.6324C41.8346 20.5729 42.0462 19.5204 42.4693 18.475C42.8924 17.4296 43.4917 16.469 44.2674 15.5931C45.043 14.7172 45.9597 14.0179 47.0175 13.4952C48.0893 12.9725 49.2669 12.7111 50.5502 12.7111C51.9323 12.7111 53.0394 13.0219 53.8715 13.6435C54.7177 14.251 55.2747 15.035 55.5427 15.9957L53.0465 17.5002C52.9054 16.921 52.6798 16.476 52.3695 16.1652C52.0593 15.8403 51.6996 15.6143 51.2906 15.4871C50.8817 15.36 50.4586 15.2964 50.0214 15.2964C49.147 15.2964 48.3854 15.4871 47.7367 15.8685C47.088 16.2359 46.545 16.7232 46.1078 17.3307C45.6706 17.9382 45.3392 18.5951 45.1136 19.3014C44.902 20.0078 44.7962 20.7 44.7962 21.3781C44.7962 22.0986 44.9161 22.7626 45.1559 23.3701C45.3956 23.9775 45.7552 24.4649 46.2347 24.8322C46.7142 25.1995 47.2995 25.3832 47.9906 25.3832C48.6393 25.3832 49.3233 25.2066 50.0425 24.8534C50.7618 24.4861 51.3682 23.8998 51.8618 23.0946L53.9561 24.472C53.4766 25.249 52.8702 25.8988 52.1368 26.4215C51.4035 26.9301 50.6208 27.3186 49.7887 27.587C48.9707 27.8413 48.1809 27.9684 47.4194 27.9684Z" fill="white"/>
<path d="M61.5548 12.8171H64.453L62.9299 19.9584L70.2281 12.7959H73.4859L66.6107 19.471L70.6301 27.8413H67.33L64.3895 21.3358L62.2106 23.3489L61.2587 27.8413H58.3605L61.5548 12.8171Z" fill="white"/>
<path d="M78.3213 12.7959H88.0524L87.5235 15.36H80.6695L79.9079 18.9836H85.81L85.3023 21.3569H79.4002L78.5752 25.2772H85.5984L85.0484 27.8413H75.127L78.3213 12.7959Z" fill="white"/>
<path d="M96.4321 15.36H91.9263L92.4551 12.7959H104.365L103.815 15.36H99.3303L96.686 27.8413H93.7667L96.4321 15.36Z" fill="white"/>
<path d="M50.9324 46.847C49.8747 46.847 48.8523 46.6775 47.865 46.3384C46.8778 45.9853 46.0387 45.5049 45.3477 44.8975L47.167 42.3758C47.2657 42.5453 47.5195 42.7784 47.9285 43.0751C48.3516 43.3717 48.8734 43.6402 49.4939 43.8803C50.1286 44.1064 50.8126 44.2194 51.5459 44.2194C52.3921 44.2194 53.0197 44.0569 53.4287 43.732C53.8517 43.3929 54.0633 42.9479 54.0633 42.397C54.0633 42.0297 53.9223 41.733 53.6402 41.507C53.3722 41.2668 52.9985 41.062 52.519 40.8924C52.0395 40.7088 51.4895 40.5181 50.869 40.3203C49.8112 39.9812 49.0074 39.5715 48.4574 39.0912C47.9074 38.5968 47.6324 37.9257 47.6324 37.0781C47.6324 36.2022 47.8016 35.4252 48.1401 34.7471C48.4926 34.0549 48.9651 33.4686 49.5574 32.9883C50.1638 32.508 50.8478 32.1477 51.6094 31.9076C52.3709 31.6533 53.1677 31.5261 53.9998 31.5261C54.987 31.5261 55.8755 31.6957 56.6653 32.0347C57.4691 32.3738 58.132 32.7623 58.6538 33.2002L56.8557 35.5736C56.7852 35.4323 56.5807 35.2486 56.2422 35.0226C55.9037 34.7824 55.4806 34.5705 54.9729 34.3869C54.4652 34.1891 53.9293 34.0902 53.3652 34.0902C52.519 34.0902 51.8844 34.2739 51.4613 34.6412C51.0382 35.0085 50.8267 35.4959 50.8267 36.1033C50.8267 36.5836 51.0664 36.9439 51.5459 37.1841C52.0254 37.4242 52.7094 37.6714 53.5979 37.9257C54.3453 38.1518 54.9941 38.4131 55.5441 38.7098C56.1082 38.9923 56.5454 39.3596 56.8557 39.8117C57.1659 40.2496 57.3211 40.8147 57.3211 41.507C57.3211 42.4535 57.1377 43.2658 56.771 43.9439C56.4185 44.622 55.939 45.173 55.3325 45.5968C54.7261 46.0206 54.0421 46.3384 53.2806 46.5504C52.519 46.7481 51.7363 46.847 50.9324 46.847Z" fill="white"/>
<path d="M67.5978 34.1962H63.0919L63.6208 31.6321H75.5307L74.9807 34.1962H70.4959L67.8517 46.6775H64.9323L67.5978 34.1962Z" fill="white"/>
<path d="M83.1767 31.6321H85.7787L87.9576 46.6775H84.9537L84.4883 42.9267H79.6439L77.6131 46.6775H74.6092L83.1767 31.6321ZM84.4248 40.8712L83.769 34.959L80.5535 40.8712H84.4248Z" fill="white"/>
<path d="M92.7497 46.6775L95.944 31.6321H102.29C103.038 31.6321 103.679 31.8299 104.215 32.2254C104.765 32.621 105.181 33.1366 105.464 33.7723C105.76 34.4081 105.908 35.0791 105.908 35.7855C105.908 36.506 105.753 37.2123 105.442 37.9045C105.132 38.5968 104.709 39.2184 104.173 39.7693C103.637 40.3203 103.031 40.737 102.354 41.0196L104.385 46.6775H101.085L99.3076 41.6341H96.7056L95.6479 46.6775H92.7497ZM100.619 39.07C101 39.07 101.367 38.9288 101.719 38.6462C102.072 38.3637 102.354 37.9964 102.565 37.5443C102.791 37.0922 102.904 36.6048 102.904 36.0821C102.904 35.5453 102.77 35.1003 102.502 34.7471C102.248 34.3798 101.931 34.1962 101.55 34.1962H98.2922L97.2556 39.07H100.619Z" fill="white"/>
<path d="M115.067 34.1962H110.561L111.09 31.6321H123L122.45 34.1962H117.965L115.321 46.6775H112.402L115.067 34.1962Z" fill="white"/>
</svg>
