<svg width="1440" height="1024" viewBox="0 0 1440 1024" fill="none" xmlns="http://www.w3.org/2000/svg">
<path d="M329.508 531.115C75.1247 839.592 -425.585 649.166 -410.693 249.607L-405.974 123.01C-404.682 88.3373 -407.712 53.6384 -414.994 19.7142L-490.662 -332.798C-566.904 -687.983 -184.996 -964.656 128.744 -781.527L294.807 -684.598C334.589 -661.377 377.936 -644.892 423.095 -635.808L611.601 -597.891C967.743 -526.255 1069.28 -65.7204 776.283 149.037L485.489 362.18C457.504 382.691 432.182 406.608 410.107 433.377L329.508 531.115Z" fill="#959AEC" fill-opacity="0.6"/>
<path d="M330.376 559.101C75.9929 867.579 -424.717 677.152 -409.824 277.593L-404.694 139.952C-403.402 105.279 -406.432 70.5804 -413.714 36.6563L-491.612 -326.246C-567.854 -681.431 -185.946 -958.104 127.794 -774.975L302.016 -673.283C341.798 -650.062 385.145 -633.577 430.303 -624.493L628.071 -584.713C984.213 -513.077 1085.75 -52.5425 792.752 162.215L493.388 381.639C465.404 402.151 440.082 426.067 418.007 452.836L330.376 559.101Z" fill="#4E4CAD" fill-opacity="0.8"/>
<path d="M328.278 491.51C73.895 799.987 -426.814 609.561 -411.922 210.002L-407.786 99.0336C-406.494 64.3609 -409.524 29.6621 -416.806 -4.26203L-489.318 -342.072C-565.559 -697.256 -183.652 -973.929 130.089 -790.801L284.605 -700.61C324.387 -677.39 367.734 -660.904 412.893 -651.821L588.292 -616.54C944.435 -544.904 1045.97 -84.3693 752.974 130.389L474.309 334.64C446.324 355.152 421.002 379.069 398.927 405.837L328.278 491.51Z" fill="#4E4CAD"/>
<g opacity="0.6">
<path fill-rule="evenodd" clip-rule="evenodd" d="M595.14 884.902C534.684 874.904 550.129 894.914 549.401 837.613C547.008 735.336 513.66 691.184 420.103 652.052L440.155 603.774C530.724 641.443 586.027 691.896 598.475 792.823C600.452 807.35 601.45 822.225 601.671 836.866C600.894 843.671 603.954 888.029 595.14 884.902Z" fill="#8687AD"/>
<path fill-rule="evenodd" clip-rule="evenodd" d="M605.653 868.714C608.102 827.288 605.288 785.544 593.164 745.542L534.829 763.422C546.18 801.633 547.634 842.574 543.133 882.053C543.775 882.15 562.338 884.958 563.527 885.137C564.064 884.015 564.479 882.615 564.916 881.388L575.66 886.973C588.368 888.894 614.267 892.812 626.881 894.72C627.191 892.537 627.574 889.542 627.814 887.357C630.112 877.661 610.445 875.562 605.653 868.714Z" fill="#0F0F21"/>
<path fill-rule="evenodd" clip-rule="evenodd" d="M594.558 750.161L535.895 766.932C530.076 746.946 521.589 728.137 507.748 712.644C475.241 678.389 429.489 658.137 385.036 643.548L402.266 585.017C458.869 603.386 515.83 629.794 555.96 675.14C574.408 696.599 586.802 723.176 594.558 750.161Z" fill="#C0C2EE"/>
<path d="M572.98 699.077C573.295 698.892 573.701 698.998 573.886 699.313C574.058 699.606 573.979 699.976 573.715 700.176L573.65 700.219L547.343 715.665C547.028 715.85 546.623 715.744 546.438 715.429C546.266 715.136 546.344 714.766 546.609 714.566L546.673 714.523L572.98 699.077Z" fill="#1B1A3B"/>
<path d="M565.439 687.333C565.739 687.124 566.151 687.197 566.36 687.497C566.553 687.774 566.505 688.147 566.261 688.367L566.196 688.418L541.171 705.866C540.871 706.075 540.458 706.001 540.249 705.701C540.057 705.425 540.104 705.052 540.349 704.832L540.414 704.78L565.439 687.333Z" fill="#1B1A3B"/>
<path d="M579.627 711.228C579.955 711.066 580.352 711.2 580.513 711.528C580.664 711.832 580.559 712.196 580.28 712.376L580.213 712.414L552.862 725.925C552.534 726.087 552.137 725.952 551.976 725.624C551.825 725.32 551.93 724.956 552.209 724.776L552.276 724.738L579.627 711.228Z" fill="#1B1A3B"/>
<path d="M400.291 589.385C400.405 589.037 400.778 588.848 401.126 588.961C433.597 599.565 461.329 611.131 485.911 624.984C514.678 641.195 538.415 660.219 556.995 682.867C557.227 683.15 557.185 683.567 556.903 683.799C556.62 684.031 556.203 683.989 555.972 683.707C537.503 661.194 513.893 642.271 485.262 626.137C460.764 612.332 433.109 600.798 400.715 590.219C400.368 590.106 400.178 589.732 400.291 589.385Z" fill="#0F0F21"/>
<path d="M559.747 679.903C559.993 679.633 560.412 679.613 560.682 679.859C560.952 680.105 560.972 680.524 560.726 680.794C559.972 681.621 558.877 682.536 557.235 683.744L556.497 684.28C555.836 684.755 552.269 687.248 550.907 688.223L550.696 688.375C541.277 695.187 537.868 700.07 541.346 704.961L544.082 709.055C545.059 710.528 545.722 711.57 546.078 712.21L546.3 712.531C547.354 714.072 548.166 715.537 549.618 718.394L550.414 719.963C552.339 723.734 553.392 725.486 554.955 727.323C557.388 729.793 561.999 729.232 568.934 726.232C570.064 725.743 571.237 725.199 572.576 724.551L573.521 724.089C574.394 723.656 578.114 721.794 579.129 721.307L579.912 720.937C581.498 720.199 582.671 719.734 583.618 719.49C583.972 719.398 584.333 719.611 584.424 719.965C584.516 720.319 584.303 720.68 583.949 720.771C583.049 721.004 581.861 721.481 580.21 722.258L579.259 722.715C577.798 723.431 574.491 725.087 573.984 725.336L573.151 725.743C571.933 726.333 570.847 726.838 569.805 727.295L569.459 727.446C562.041 730.655 556.986 731.271 553.98 728.217C552.302 726.247 551.211 724.434 549.242 720.58L548.296 718.715C546.864 715.905 546.076 714.514 544.959 712.914L544.84 712.706C544.521 712.159 544.04 711.398 543.388 710.405L540.253 705.706C538.002 702.541 538.299 699.204 540.714 695.745C542.518 693.161 545.316 690.66 549.543 687.576L549.92 687.303C551.087 686.458 555.036 683.7 555.725 683.205L556.207 682.856C557.919 681.608 559.031 680.689 559.747 679.903Z" fill="#1B1A3B"/>
<path fill-rule="evenodd" clip-rule="evenodd" d="M369.292 649.522H362.674C326.494 649.522 297.164 620.192 297.164 584.011H434.804C434.804 620.192 405.473 649.522 369.292 649.522Z" fill="#D8D9F4"/>
<path fill-rule="evenodd" clip-rule="evenodd" d="M100.806 786.437L102.244 742.755C102.494 737.81 106.686 738.523 110.153 738.529C119.863 738.209 137.793 738.171 147.764 738.12C185.807 736.906 241.242 739.931 274.634 722.727C302.176 699.455 303.226 660.711 302.199 626.824L354.431 624.694C357.111 673.864 348.743 729.908 308.192 762.851C283.872 781.493 252.275 784.671 223.039 787.796C191.236 790.592 158.621 790.298 126.8 790.505C121.908 790.538 115.819 790.684 110.927 790.799C107.17 790.868 100.822 791.708 100.806 786.437Z" fill="#8687AD"/>
<mask id="mask0" mask-type="alpha" maskUnits="userSpaceOnUse" x="93" y="730" width="146" height="90">
<path fill-rule="evenodd" clip-rule="evenodd" d="M93 730.447H238.207V819.498H93V730.447Z" fill="white"/>
</mask>
<g mask="url(#mask0)">
<path fill-rule="evenodd" clip-rule="evenodd" d="M117.879 795.407C157.689 794.804 198.372 795.906 238.207 791.001L230.724 730.447C187.567 735.275 143.574 734.038 99.8148 734.377C99.613 737.231 98.9684 745.575 98.7388 748.547C97.592 763.383 100.06 731.304 99.8466 734.379C99.877 734.381 99.9604 734.389 99.9921 734.391C99.9385 735.038 98.3888 753.749 98.2895 754.947C99.245 755.436 100.679 755.683 101.807 756.026C100.422 759.702 98.6581 763.504 97.2757 767.176C96.2176 779.974 94.0518 806.096 92.9996 818.804C94.65 818.939 97.0627 819.056 98.7269 819.123C111.379 822.45 111.323 802.71 117.879 795.407Z" fill="#1B1A3B"/>
</g>
<path fill-rule="evenodd" clip-rule="evenodd" d="M226.728 730.924C242.637 728.799 258.347 727.182 271.888 719.854C271.97 719.725 272.093 719.632 272.24 719.59C308.928 687.561 295.343 627.039 294.71 583.58L357.06 584.282C360.258 639.583 365.718 700.755 329.583 747.442C324.29 754.46 317.728 761.032 311.016 766.698C289.038 783.895 260.046 788.224 233.443 791.567L226.728 730.924Z" fill="#D8D9F4"/>
<path fill-rule="evenodd" clip-rule="evenodd" d="M315.045 738.164C308.525 738.536 301.857 738.198 295.418 737.217C294.598 731.08 293.202 725.082 291.089 719.276C320.199 680.507 310.669 629.094 309.471 583.593L339.978 583.611C342.579 635.532 349.411 694.432 315.045 738.164Z" fill="#1B1A3B"/>
<path d="M276.76 750.559C277.076 750.435 277.429 750.571 277.585 750.863L277.618 750.933L288.77 779.329C288.904 779.669 288.737 780.053 288.396 780.187C288.08 780.311 287.727 780.175 287.571 779.883L287.539 779.813L276.386 751.417C276.252 751.077 276.42 750.693 276.76 750.559Z" fill="#1B1A3B"/>
<path d="M286.399 745.944C286.691 745.77 287.062 745.846 287.264 746.108L287.307 746.172L302.954 772.361C303.142 772.675 303.039 773.081 302.726 773.269C302.434 773.443 302.063 773.367 301.861 773.104L301.818 773.04L286.171 746.851C285.983 746.537 286.086 746.131 286.399 745.944Z" fill="#1B1A3B"/>
<path d="M265.881 754.145C266.208 754.054 266.546 754.226 266.671 754.533L266.696 754.606L274.847 784.003C274.945 784.355 274.739 784.72 274.387 784.818C274.06 784.908 273.722 784.737 273.597 784.43L273.572 784.357L265.42 754.96C265.323 754.607 265.529 754.243 265.881 754.145Z" fill="#1B1A3B"/>
<path d="M352.248 583.618C352.612 583.595 352.928 583.87 352.953 584.235L353.468 591.886C354.634 609.533 355.127 619.834 355.278 631.75C355.506 649.689 354.637 665.474 352.38 680.082C346.926 715.379 333.393 742.873 309.102 762.933C308.82 763.166 308.403 763.126 308.171 762.844C307.938 762.562 307.978 762.145 308.259 761.913C332.276 742.08 345.664 714.879 351.072 679.88C353.271 665.649 354.146 650.279 353.967 632.858L353.932 630.155C353.733 617.326 353.11 605.921 351.633 584.325C351.608 583.96 351.883 583.644 352.248 583.618Z" fill="#1B1A3B"/>
<path d="M289.577 744.957C294.074 744.654 298.348 748.204 304.088 755.565L304.694 756.35C305.812 757.817 308.169 760.958 308.688 761.63L309.235 762.33C310.465 763.886 311.386 764.911 312.17 765.568C312.45 765.803 312.486 766.22 312.252 766.5C312.017 766.78 311.599 766.817 311.319 766.582C310.371 765.787 309.301 764.573 307.834 762.689L307.154 761.8C306.148 760.472 304.139 757.797 303.37 756.798L303.292 756.697C297.706 749.481 293.598 746.012 289.666 746.277C288.781 746.337 287.917 746.602 287.081 747.078C283.667 749.142 279.865 750.843 274.641 752.796L274.363 752.917C273.442 753.309 272.531 753.596 270.938 754.022L269.741 754.337C265.214 755.523 263.215 756.512 261.901 758.805L261.819 758.953L261.753 759.052C260.403 760.722 260.713 765.158 262.353 772.174L262.61 773.251C262.787 773.979 262.979 774.742 263.193 775.578L264.844 781.92L265.014 782.613C265.44 784.373 265.67 785.578 265.722 786.426C265.744 786.791 265.467 787.105 265.102 787.127C264.738 787.15 264.424 786.872 264.401 786.508L264.383 786.282C264.311 785.532 264.096 784.444 263.725 782.912L263.476 781.912C263.051 780.249 262.045 776.422 262.022 776.334L261.703 775.088C261.501 774.291 261.32 773.554 261.15 772.839L260.98 772.113C259.327 764.946 259.029 760.476 260.641 758.325L260.685 758.267L260.751 758.15C262.263 755.501 264.453 754.377 269.111 753.135L270.579 752.748C272.274 752.295 273.16 752.008 274.139 751.572L275.126 751.199C279.812 749.413 283.283 747.828 286.411 745.937C287.434 745.354 288.49 745.03 289.577 744.957Z" fill="#1B1A3B"/>
<path fill-rule="evenodd" clip-rule="evenodd" d="M434.858 584.681H294.696V520.079C294.696 504.549 307.285 491.96 322.815 491.96H406.739C422.269 491.96 434.858 504.549 434.858 520.079V584.681Z" fill="#D8D9F4"/>
<mask id="mask1" mask-type="alpha" maskUnits="userSpaceOnUse" x="294" y="486" width="273" height="128">
<path fill-rule="evenodd" clip-rule="evenodd" d="M294.695 613.134H566.226V486.562H294.695V613.134Z" fill="white"/>
</mask>
<g mask="url(#mask1)">
<path fill-rule="evenodd" clip-rule="evenodd" d="M309.574 584.754H340.095V524.247H309.574V584.754Z" fill="#1B1A3B"/>
<path d="M408.612 492.294C412.803 492.294 415.565 494.157 417.019 497.591C418.153 500.268 418.471 503.782 418.189 508.239L418.161 508.66C418.047 510.266 417.872 511.874 417.605 513.881L417.145 517.167C416.447 522.029 415.331 529.404 413.883 538.758L412.293 548.979L410.771 558.688C410.253 561.979 409.726 565.315 409.197 568.661L406.633 584.804C406.575 585.165 406.236 585.411 405.875 585.353C405.54 585.3 405.304 585.003 405.318 584.672L405.334 584.544L407.095 573.475L409.463 558.482C409.895 555.739 410.32 553.027 410.737 550.366L413.054 535.459C414.088 528.745 414.929 523.193 415.537 519.034L416.123 514.953L416.292 513.712C416.556 511.728 416.729 510.142 416.841 508.566L416.88 507.967C417.441 498.574 415.207 493.618 408.612 493.618C408.247 493.618 407.95 493.322 407.95 492.956C407.95 492.591 408.247 492.294 408.612 492.294Z" fill="#1B1A3B"/>
<path d="M334.294 492.294C339.717 492.294 345.297 495.509 350.465 501.01C354.729 505.548 358.435 511.436 360.29 516.298L360.63 517.196C362.709 522.733 365.52 530.941 368.894 541.239L369.653 543.561C370.014 544.669 370.38 545.795 370.75 546.939L371.754 550.047C373.771 556.314 375.849 562.869 377.916 569.466L379.356 574.073L382.587 584.506C382.694 584.855 382.497 585.225 382.148 585.332C381.823 585.432 381.481 585.27 381.348 584.966L381.297 584.815L379.625 579.397C379.021 577.448 378.372 575.361 377.685 573.16L376.654 569.861C374.415 562.719 372.164 555.624 369.991 548.893L368.757 545.084L367.451 541.084C363.979 530.502 361.116 522.178 359.053 516.769C357.26 512.07 353.647 506.33 349.5 501.916C344.559 496.656 339.285 493.618 334.294 493.618C333.929 493.618 333.632 493.322 333.632 492.956C333.632 492.591 333.929 492.294 334.294 492.294Z" fill="#1B1A3B"/>
<path d="M402.44 491.078C406.132 491.078 408.566 493.589 409.838 498.006C410.858 501.549 411.147 506.305 410.846 511.995C410.642 515.868 410.173 520 409.52 524.193C409.24 525.985 408.943 527.685 408.644 529.253L408.532 529.834C408.453 530.237 408.378 530.612 408.308 530.956L408.081 532.031C407.986 532.454 407.629 532.763 407.204 532.803L407.112 532.807H377.112C376.719 532.807 376.363 532.575 376.204 532.216L376.007 531.779L375.538 530.758L375.43 530.527C374.799 529.176 374.073 527.67 373.263 526.048C370.948 521.415 368.423 516.782 365.774 512.462L365.206 511.544C361.048 504.879 356.994 499.677 353.22 496.486C350.551 494.229 348.112 493.064 345.97 493.064C345.422 493.064 344.977 492.619 344.977 492.071C344.977 491.523 345.422 491.078 345.97 491.078C348.662 491.078 351.507 492.438 354.502 494.97C358.643 498.472 363.008 504.153 367.466 511.424C370.148 515.798 372.7 520.48 375.038 525.161L375.519 526.13C376.146 527.402 376.718 528.594 377.228 529.687L377.752 530.822H406.308L406.47 530.028L406.584 529.454C406.916 527.752 407.248 525.877 407.558 523.887C408.202 519.756 408.663 515.689 408.864 511.89L408.898 511.185C409.409 499.754 407.384 493.064 402.44 493.064C401.892 493.064 401.447 492.619 401.447 492.071C401.447 491.523 401.892 491.078 402.44 491.078Z" fill="#1B1A3B"/>
<path d="M339.395 537.616C339.76 537.254 340.335 537.233 340.724 537.553L340.799 537.621L356.873 553.801C356.974 553.902 357.051 554.024 357.1 554.157L357.131 554.259L364.712 584.44C364.845 584.971 364.522 585.51 363.991 585.644C363.49 585.77 362.983 585.491 362.814 585.015L362.786 584.923L355.273 555.007L339.39 539.02C339.028 538.655 339.007 538.08 339.327 537.691L339.395 537.616Z" fill="#C0C2EE"/>
<path d="M434.596 537.747C434.913 537.3 435.532 537.193 435.98 537.51C436.401 537.808 436.52 538.374 436.268 538.813L436.217 538.894L424.881 554.923L417.347 584.923C417.221 585.423 416.736 585.739 416.236 585.663L416.143 585.644C415.642 585.518 415.327 585.033 415.403 584.533L415.422 584.439L423.001 554.259C423.023 554.169 423.058 554.084 423.104 554.005L423.153 553.927L434.596 537.747Z" fill="#C0C2EE"/>
<path d="M358.489 491.749C358.606 491.402 358.981 491.216 359.328 491.332L359.622 491.439L359.708 491.472C360.006 491.587 360.35 491.729 360.737 491.9C361.835 492.385 363.055 493.004 364.368 493.769C368.111 495.95 371.851 498.868 375.34 502.624C381.786 509.563 386.627 518.551 389.207 529.838C389.288 530.195 389.065 530.549 388.709 530.631C388.353 530.712 387.998 530.489 387.917 530.133C385.389 519.075 380.661 510.296 374.37 503.525C370.974 499.869 367.336 497.031 363.702 494.912C362.433 494.172 361.256 493.576 360.202 493.11C359.908 492.981 359.642 492.869 359.405 492.775L359.086 492.652C359.001 492.62 358.941 492.598 358.906 492.587C358.56 492.47 358.373 492.095 358.489 491.749Z" fill="#C0C2EE"/>
<path d="M396.583 491.65C396.754 491.327 397.154 491.204 397.477 491.374C397.777 491.533 397.905 491.889 397.785 492.198L397.713 492.359C397.694 492.404 397.671 492.463 397.644 492.538L397.615 492.618C397.492 492.972 397.366 493.43 397.248 494.001L397.172 494.382C395.982 500.696 396.722 512.043 400.789 529.838C400.87 530.194 400.648 530.549 400.291 530.631C399.935 530.712 399.58 530.489 399.499 530.133L399.252 529.041C395.283 511.342 394.64 500.05 395.952 493.732C396.177 492.647 396.411 491.977 396.583 491.65Z" fill="#C0C2EE"/>
<path fill-rule="evenodd" clip-rule="evenodd" d="M564.27 508.389C566.933 510.32 566.876 514.929 564.108 518.509C554.274 531.213 543.837 543.167 532.495 554.572C525.081 562.059 516.618 553.618 524.058 546.164C535.029 535.133 545.186 523.494 554.678 511.231C557.338 507.791 561.6 506.469 564.27 508.389Z" fill="#1B1A3B"/>
<path fill-rule="evenodd" clip-rule="evenodd" d="M556.753 500.72C563.603 507.577 550.793 516.953 547.059 522.838C544.254 526.202 539.919 527.128 537.438 524.96C531.317 517.765 543.955 509.577 547.335 503.41C549.899 500.061 554.066 498.826 556.753 500.72Z" fill="#1B1A3B"/>
<path fill-rule="evenodd" clip-rule="evenodd" d="M549.102 493.207C556.139 499.792 543.623 508.985 540.014 514.747C537.309 518.04 533.02 518.895 530.544 516.749C524.358 509.722 536.629 501.705 539.916 495.674C542.388 492.419 546.414 491.316 549.102 493.207Z" fill="#1B1A3B"/>
<path fill-rule="evenodd" clip-rule="evenodd" d="M530.234 491.629C538.245 498.252 518.978 513.001 514.949 519C513.432 521.256 505.643 522.117 503.963 521.942C507.277 518.462 501.93 515.558 507.781 509.187C513.624 504.728 522.317 486.047 530.234 491.629Z" fill="#1B1A3B"/>
<path fill-rule="evenodd" clip-rule="evenodd" d="M540.661 487.561C543.724 489.699 543.415 493.998 541.184 496.912C535.335 502.761 512.513 538.469 504.783 529.565C502.267 526.916 503.138 522.81 505.625 520.212C514.851 510.62 523.642 500.321 531.683 489.728C534.081 486.571 537.999 485.632 540.661 487.561Z" fill="#1B1A3B"/>
<path fill-rule="evenodd" clip-rule="evenodd" d="M549.101 502.899H549.101C560.261 511.858 556.998 528.634 547.562 539.172C540.98 546.324 534.127 553.267 526.912 559.956C503.926 580.984 478.269 599.803 447.062 607.525C435.403 610.269 422.66 611.055 410.978 608.823C378.999 602.898 352.789 581.305 331.443 558.439C321.351 545.275 294.429 524.132 313.922 508.733C337.138 495.257 346.789 516.587 360.58 530.575C377.91 548.043 398.78 566.853 424.149 568.132C453.724 566.695 477.935 545.801 499.084 525.889C512.453 512.563 528.071 489.853 549.101 502.899Z" fill="#D8D9F4"/>
<path fill-rule="evenodd" clip-rule="evenodd" d="M499.541 526.354L529.839 557.218C493.924 590.81 445.232 627.009 393.546 607.13C368.004 598.052 346.871 580.39 328.639 561.12C314.643 544.467 282.84 516.433 309.846 497.217C330.523 484.511 341.592 504.137 355.293 519.523C367.114 533.229 382.804 549.127 399.992 558.536C435.541 579.771 472.952 549.868 499.541 526.354Z" fill="#D8D9F4"/>
<path fill-rule="evenodd" clip-rule="evenodd" d="M443.382 562.795L444.471 565.8C459.22 563.301 473.938 556.587 487.279 548.894C491.655 541.372 495.547 533.679 499.084 525.889C482.833 541.034 463.804 555.854 443.382 562.795Z" fill="#1B1A3B"/>
<path fill-rule="evenodd" clip-rule="evenodd" d="M458.02 603.224L459.084 606.165C477.903 598.972 493.977 588.084 508.941 575.623L503.736 569.2C490.35 582.692 475.765 594.674 458.02 603.224Z" fill="#1B1A3B"/>
<path fill-rule="evenodd" clip-rule="evenodd" d="M429.585 598.661L430.612 612.909C406.349 614.73 382.881 605.322 363.341 592.035C373.629 575.949 374.833 572.599 393.091 582.843C398.258 585.24 403.656 587.16 409.207 588.496C416.369 590.339 427.911 589.555 429.585 598.661Z" fill="#1B1A3B"/>
<path fill-rule="evenodd" clip-rule="evenodd" d="M508.946 575.63L481.448 541.699C487.506 536.789 493.386 531.476 499.084 525.889L529.838 557.217C523.224 563.597 516.299 569.766 508.946 575.63Z" fill="#1B1A3B"/>
<path fill-rule="evenodd" clip-rule="evenodd" d="M357.402 524.717L324.578 554.522C312.346 539.595 289.203 517.977 311.706 501.309C335.082 488.164 343.923 510.718 357.402 524.717Z" fill="#1B1A3B"/>
</g>
<path fill-rule="evenodd" clip-rule="evenodd" d="M389.894 483.344H386.594C371.22 483.344 358.758 470.882 358.758 455.508V442.451C358.758 430.682 368.298 421.141 380.067 421.141H383.769C395.538 421.141 405.079 430.682 405.079 442.451V468.159C405.079 476.546 398.28 483.344 389.894 483.344Z" fill="#8687AD"/>
<path fill-rule="evenodd" clip-rule="evenodd" d="M366.699 459.853C366.699 464.421 362.995 468.124 358.427 468.124C353.859 468.124 350.155 464.421 350.155 459.853C350.155 455.284 353.859 451.581 358.427 451.581C362.995 451.581 366.699 455.284 366.699 459.853Z" fill="#8687AD"/>
<path d="M356.817 457.317C356.817 457.317 360.485 457.317 360.485 460.985" stroke="black" stroke-width="3"/>
<path fill-rule="evenodd" clip-rule="evenodd" d="M358.096 451.581H357.08C353.206 447.814 351.717 440.138 351.269 432.688C350.655 422.478 368.381 413.862 378.609 413.862H390.51L401.77 431.067H375.762C375.762 442.317 366.037 451.581 358.096 451.581Z" fill="black"/>
<path fill-rule="evenodd" clip-rule="evenodd" d="M372.099 430.616L388.133 435.445C394.583 437.387 401.386 433.733 403.327 427.283L404.841 422.254C405.598 419.745 404.176 417.098 401.666 416.342L388.009 412.229C379.514 409.672 370.555 414.484 367.997 422.978C367.02 426.22 368.857 429.64 372.099 430.616Z" fill="black"/>
<path fill-rule="evenodd" clip-rule="evenodd" d="M391.247 503.858H380.084C371.336 503.858 362.16 499.098 358.871 491.943C358.871 491.943 358.758 486.485 358.758 483.609V478.963C358.758 477.627 359.899 476.543 361.307 476.543H399.532C400.94 476.543 402.081 477.627 402.081 478.963V493.57C402.081 499.252 397.231 503.858 391.247 503.858Z" fill="black"/>
<path fill-rule="evenodd" clip-rule="evenodd" d="M408.424 486.356C406.092 492.022 400.256 495.723 393.801 495.723H388.76C373.696 495.723 364.837 489.499 355.761 482.258C355.761 482.258 350.085 476.799 346.083 466.419C341.075 453.427 337.851 434.305 342.059 426.609C346.334 418.794 357.691 403.25 374.18 403.25C397.993 403.25 415.566 416.103 415.566 438.539L412.117 467.261C412.117 471.95 410.331 481.722 408.424 486.356Z" fill="#D8D9F4"/>
<path fill-rule="evenodd" clip-rule="evenodd" d="M352.203 442.518C352.203 442.518 359.525 414.764 389.148 414.764C404.97 414.764 413.739 427.148 415.111 442.33L412.117 467.26C412.117 467.26 404.208 498.025 364.832 471.431C363.63 470.619 362.885 469.328 362.463 467.993L352.203 442.518Z" fill="#1B1A3B"/>
<path d="M369.341 433.964L375.682 452.243" stroke="white" stroke-width="7" stroke-linecap="round" stroke-linejoin="round" stroke-dasharray="12 12"/>
</g>
</svg>
