<svg width="1440" height="1805" viewBox="0 0 1440 1805" fill="none" xmlns="http://www.w3.org/2000/svg">
<path d="M591.814 360.726C209.828 242.59 195.779 -292.924 571.045 -430.926L689.945 -474.65C722.51 -486.626 753.457 -502.609 782.072 -522.232L1079.42 -726.135C1379.02 -931.584 1780.02 -683.401 1729.8 -323.614L1703.22 -133.179C1696.85 -87.5578 1698.07 -41.198 1706.82 4.02624L1743.35 192.805C1812.37 549.464 1424.92 818.332 1114.97 628.874L807.337 440.843C777.733 422.747 745.99 408.408 712.843 398.157L591.814 360.726Z" fill="#959AEC" fill-opacity="0.6"/>
<path d="M566.255 372.161C184.269 254.025 170.221 -281.489 545.487 -419.491L674.759 -467.031C707.324 -479.006 738.271 -494.989 766.886 -514.612L1073 -724.524C1372.59 -929.973 1773.6 -681.791 1723.38 -322.004L1695.49 -122.212C1689.12 -76.5911 1690.34 -30.2314 1699.09 14.9927L1737.42 213.047C1806.43 569.706 1418.99 838.573 1109.03 649.116L792.338 455.542C762.733 437.447 730.991 423.108 697.843 412.856L566.255 372.161Z" fill="#4E4CAD" fill-opacity="0.8"/>
<path d="M627.983 344.544C245.997 226.408 231.949 -309.105 607.215 -447.107L711.436 -485.434C744.001 -497.41 774.947 -513.393 803.563 -533.016L1088.51 -728.414C1388.11 -933.863 1789.11 -685.68 1738.89 -325.893L1714.15 -148.699C1707.79 -103.078 1709 -56.7181 1717.75 -11.4938L1751.75 164.16C1820.76 520.819 1433.32 789.686 1123.36 600.229L828.565 420.039C798.961 401.944 767.218 387.605 734.071 377.354L627.983 344.544Z" fill="#4E4CAD"/>
<mask id="mask0" mask-type="alpha" maskUnits="userSpaceOnUse" x="301" y="-822" width="1457" height="1503">
<path d="M615.335 336.669C233.35 218.533 219.301 -316.981 594.567 -454.983L698.789 -493.31C731.353 -505.285 762.3 -521.269 790.915 -540.891L1075.86 -736.29C1375.46 -941.738 1776.47 -693.555 1726.24 -333.768L1701.51 -156.574C1695.14 -110.953 1696.36 -64.5933 1705.11 -19.369L1739.1 156.285C1808.12 512.944 1420.67 781.811 1110.71 592.353L815.918 412.164C786.313 394.069 754.571 379.73 721.423 369.478L615.335 336.669Z" fill="#4E4CAD"/>
</mask>
<g mask="url(#mask0)">
<g opacity="0.3">
<g opacity="0.288">
<g opacity="0.288">
<path opacity="0.288" fill-rule="evenodd" clip-rule="evenodd" d="M893.419 159.108C929.734 179.513 964.946 216.682 967.926 256.829C971.017 296.977 941.656 340.212 905.45 367.014C869.245 393.815 825.976 404.403 782.706 404.515C739.326 404.624 695.946 394.367 660.403 367.565C624.86 340.653 597.375 297.307 581.259 237.748C565.033 178.189 560.397 102.527 595.94 82.1229C631.373 61.7184 707.094 96.5715 763.61 115.873C820.015 135.064 857.214 138.704 893.419 159.108Z" fill="#ADB1F0"/>
</g>
</g>
<path d="M634.27 229.203V265.291C634.27 268.465 636.868 271.113 640.024 271.198L640.179 271.2H676.267V292.432H640.179C625.377 292.432 613.283 280.485 613.042 265.738L613.039 265.291V229.203H634.27Z" fill="#1B1A3B"/>
<path fill-rule="evenodd" clip-rule="evenodd" d="M643.719 245.886H630.425C601.623 245.886 578.059 222.321 578.059 193.519V157.798C578.059 128.997 601.623 105.432 630.425 105.432H643.719C661.727 105.432 676.461 120.165 676.461 138.173V213.144C676.461 231.152 661.727 245.886 643.719 245.886Z" fill="#3F3E8D"/>
<path fill-rule="evenodd" clip-rule="evenodd" d="M716.202 416.282H710.758C708.362 416.282 706.402 413.752 706.402 410.658V293.972C706.402 290.879 708.362 288.349 710.758 288.349H716.202C718.597 288.349 720.557 290.879 720.557 293.972V410.658C720.557 413.752 718.597 416.282 716.202 416.282Z" fill="#A2A4D2"/>
<path fill-rule="evenodd" clip-rule="evenodd" d="M720.557 424.448H713.479H706.402C706.402 424.448 657.407 432.396 657.407 428.803V427.17C657.407 423.577 660.346 420.637 663.939 420.637L706.402 409.749H713.479H720.557L763.02 420.637C766.613 420.637 769.552 423.577 769.552 427.17V428.803C769.552 432.396 720.557 424.448 720.557 424.448Z" fill="#1B1A3B"/>
<path fill-rule="evenodd" clip-rule="evenodd" d="M717.877 364.02H709.083C705.213 364.02 702.047 362.523 702.047 360.694V291.675C702.047 289.846 705.213 288.349 709.083 288.349H717.877C721.746 288.349 724.912 289.846 724.912 291.675V360.694C724.912 362.523 721.746 364.02 717.877 364.02Z" fill="#A2A4D2"/>
<path fill-rule="evenodd" clip-rule="evenodd" d="M765.337 299.237H661.622C653.316 299.237 646.519 292.44 646.519 284.133V276.232C646.519 267.925 653.316 261.129 661.622 261.129H765.337C773.644 261.129 780.44 267.925 780.44 276.232V284.133C780.44 292.44 773.644 299.237 765.337 299.237Z" fill="#3F3E8D"/>
<path fill-rule="evenodd" clip-rule="evenodd" d="M666.117 436.424C666.117 440.634 662.705 444.046 658.496 444.046C654.286 444.046 650.874 440.634 650.874 436.424C650.874 432.215 654.286 428.803 658.496 428.803C662.705 428.803 666.117 432.215 666.117 436.424Z" fill="#1B1A3B"/>
<path fill-rule="evenodd" clip-rule="evenodd" d="M777.174 436.424C777.174 440.634 773.762 444.046 769.552 444.046C765.343 444.046 761.931 440.634 761.931 436.424C761.931 432.215 765.343 428.803 769.552 428.803C773.762 428.803 777.174 432.215 777.174 436.424Z" fill="#1B1A3B"/>
<path fill-rule="evenodd" clip-rule="evenodd" d="M721.646 436.424C721.646 440.634 718.233 444.046 714.024 444.046C709.815 444.046 706.402 440.634 706.402 436.424C706.402 432.215 709.815 428.803 714.024 428.803C718.233 428.803 721.646 432.215 721.646 436.424Z" fill="#1B1A3B"/>
<path fill-rule="evenodd" clip-rule="evenodd" d="M716.202 429.892H711.846L706.402 416.282C706.402 412.689 709.342 409.749 712.935 409.749H715.113C718.706 409.749 721.646 412.689 721.646 416.282L716.202 429.892Z" fill="#1B1A3B"/>
<path fill-rule="evenodd" clip-rule="evenodd" d="M992.129 385.422C928.123 404.342 967.054 409.738 921.341 332.434C878.763 258.784 838.328 263.662 762.318 258.001L767.611 211.284C814.097 214.664 865.497 214.504 905.162 242.921C939.882 268.121 962.443 305.691 979.998 343.735C985.415 355.726 990.264 367.898 994.529 380.416C995.241 382.516 994.156 384.771 992.129 385.422Z" fill="#8687AD"/>
<mask id="mask1" mask-type="alpha" maskUnits="userSpaceOnUse" x="899" y="271" width="123" height="132">
<path fill-rule="evenodd" clip-rule="evenodd" d="M899.096 271.632H1021.71V402.739H899.096V271.632Z" fill="white"/>
</mask>
<g mask="url(#mask1)">
<path fill-rule="evenodd" clip-rule="evenodd" d="M994.779 368.351C981.668 333.753 965.017 300.579 941.493 271.632L899.096 306.467C921.491 334.259 937.505 368.6 948.589 402.739C949.15 402.575 965.358 397.842 966.395 397.538C966.406 396.587 966.178 394.842 966.097 393.856C966.097 393.856 976.988 394.446 976.988 394.446C988.084 391.204 1010.7 384.602 1021.71 381.385C1021.39 380.321 1020.73 378.178 1020.39 377.13C1019.63 366.332 1004.63 372.407 994.779 368.351Z" fill="#0F0F21"/>
</g>
<path fill-rule="evenodd" clip-rule="evenodd" d="M944.182 274.967L901.142 309.006C874.661 272.727 838.238 266.04 796.66 263.898C767.742 262.341 737.249 262.047 711.622 245.237L741.503 199.213C763 211.2 789.515 207.054 813.871 210.079C867.605 214.211 910.95 231.062 944.182 274.967Z" fill="#C0C2EE"/>
<path d="M908.784 240.241C908.978 239.975 909.35 239.917 909.616 240.111C909.861 240.29 909.929 240.621 909.785 240.88L909.745 240.943L893.553 263.092C893.359 263.357 892.987 263.415 892.722 263.221C892.477 263.042 892.409 262.711 892.552 262.453L892.592 262.39L908.784 240.241Z" fill="#1B1A3B"/>
<path d="M898.191 233.287C898.359 233.005 898.724 232.912 899.007 233.08C899.269 233.237 899.367 233.563 899.245 233.835L899.213 233.896L885.161 257.461C884.992 257.744 884.627 257.836 884.345 257.668C884.083 257.511 883.984 257.185 884.106 256.913L884.138 256.852L898.191 233.287Z" fill="#1B1A3B"/>
<path d="M918.572 247.977C918.787 247.728 919.163 247.701 919.412 247.916C919.641 248.114 919.682 248.45 919.518 248.696L919.472 248.755L901.524 269.507C901.309 269.756 900.934 269.783 900.685 269.568C900.456 269.37 900.415 269.034 900.579 268.788L900.624 268.729L918.572 247.977Z" fill="#1B1A3B"/>
<path d="M738.672 202.48C738.854 202.206 739.223 202.131 739.497 202.313C746.718 207.105 756.733 209.667 770.66 211.014L773.039 211.233C776.036 211.494 778.683 211.665 784.194 211.971L789.52 212.265L792.744 212.426C818.111 213.724 833.326 215.348 849.727 219.118C864.984 222.681 878.041 227.041 889.532 232.752C889.826 232.899 889.946 233.256 889.8 233.55C889.654 233.844 889.297 233.965 889.002 233.818C877.603 228.153 864.63 223.821 849.459 220.277L848.44 220.046C831.828 216.307 816.176 214.752 789.457 213.454L780.659 212.962C776.479 212.716 774.245 212.547 771.101 212.252L770.002 212.146C756.177 210.767 746.166 208.167 738.839 203.304C738.565 203.123 738.49 202.753 738.672 202.48Z" fill="#0F0F21"/>
<path d="M925.54 254.3L925.041 254.831L918.167 262.204C916.047 264.469 914.644 265.918 913.414 267.091L913.283 267.216C910.203 270.133 908.139 271.316 905.934 271.268C903.971 271.226 902.082 270.287 898.61 267.81L897.896 267.295C896.794 266.489 893.632 264.147 892.476 263.303L892.38 263.232C889.67 261.261 887.126 259.49 884.345 257.667C879.868 254.997 880.03 250.097 883.43 242.952L883.549 242.705C884.172 241.414 884.882 240.077 885.775 238.487L888.487 233.737C888.634 233.478 888.755 233.261 888.838 233.112L889.096 232.639C889.882 231.184 890.376 230.118 890.634 229.285C890.732 228.971 891.065 228.795 891.379 228.892C891.693 228.989 891.869 229.323 891.771 229.637C891.486 230.559 890.967 231.681 890.149 233.195L889.728 233.961C889.033 235.198 887.243 238.307 887.005 238.728L886.627 239.401C885.893 240.717 885.288 241.858 884.753 242.95L884.621 243.222C881.345 250.007 881.154 254.378 884.976 256.658C887.514 258.321 889.841 259.93 892.267 261.681L893.402 262.505C894.825 263.548 898.114 265.985 898.835 266.506L899.499 266.982C902.648 269.213 904.347 270.043 905.96 270.078C907.768 270.118 909.593 269.072 912.465 266.352L912.856 265.977C913.917 264.951 915.139 263.691 916.858 261.86L924.503 253.665L924.673 253.484C924.899 253.245 925.275 253.233 925.514 253.459C925.754 253.684 925.765 254.061 925.54 254.3Z" fill="#1B1A3B"/>
<path fill-rule="evenodd" clip-rule="evenodd" d="M707.515 255.066H701.563C669.024 255.066 642.645 228.688 642.645 196.148H766.433C766.433 228.688 740.055 255.066 707.515 255.066Z" fill="#D8D9F4"/>
<path fill-rule="evenodd" clip-rule="evenodd" d="M815.283 463.616C821.621 427.512 827.342 391.421 830.561 354.75L775.881 350.148C772.068 389.386 766.439 429.605 758.215 468.342C760.69 469.049 767.913 471.164 770.486 471.917C783.329 475.679 755.558 467.557 758.224 468.315C758.232 468.289 758.253 468.216 758.261 468.19C758.821 468.357 774.999 473.191 776.035 473.5C776.643 472.75 777.126 471.534 777.637 470.605C780.614 472.505 783.633 474.763 786.608 476.66C797.674 479.966 820.261 486.717 831.249 490C831.674 488.573 832.224 486.471 832.593 485.019C837.895 474.432 820.339 470.952 815.283 463.616Z" fill="#1B1A3B"/>
<mask id="mask2" mask-type="alpha" maskUnits="userSpaceOnUse" x="640" y="194" width="193" height="166">
<path fill-rule="evenodd" clip-rule="evenodd" d="M640.417 194.026H832.102V359.131H640.417V194.026Z" fill="white"/>
</mask>
<g mask="url(#mask2)">
<path fill-rule="evenodd" clip-rule="evenodd" d="M775.53 354.136C776.653 340.971 777.821 326.73 776.78 314.083C776.79 314.089 776.75 314.054 776.829 314.153C759.713 294.936 733.35 287.721 709.701 276.896C674.915 263.113 640.808 236.908 640.417 195.765L695.263 196.148C696.429 218.104 727.237 223.692 744.419 232.022C762.678 239.656 781.29 247.54 797.921 259.571C811.754 270.235 827.172 283.408 830.371 301.515C833.529 320.637 831.689 340.044 830.176 359.131L775.53 354.136Z" fill="#D8D9F4"/>
</g>
<path fill-rule="evenodd" clip-rule="evenodd" d="M794.741 293.534C788.961 294.048 783.418 295.166 778.102 296.698C738.42 264.07 656.111 261.671 653.642 196.007L681.035 195.765C681.455 221.699 708.858 232.037 729.385 240.962C752.195 250.704 776.116 259.486 795.611 275.574C795.911 281.761 795.648 287.804 794.741 293.534Z" fill="#1B1A3B"/>
<path d="M831.213 307.104C831.539 307.066 831.834 307.3 831.872 307.627C831.908 307.93 831.708 308.206 831.418 308.275L831.35 308.287L804.094 311.455C803.768 311.493 803.472 311.259 803.434 310.933C803.399 310.63 803.598 310.353 803.888 310.285L803.957 310.273L831.213 307.104Z" fill="#1B1A3B"/>
<path d="M826.962 290.503C827.261 290.367 827.614 290.499 827.75 290.797C827.877 291.075 827.773 291.399 827.518 291.554L827.456 291.586L802.356 303.053C802.057 303.19 801.704 303.058 801.567 302.759C801.44 302.481 801.545 302.157 801.8 302.003L801.861 301.97L826.962 290.503Z" fill="#1B1A3B"/>
<path d="M832.032 320.77C832.36 320.766 832.63 321.029 832.634 321.358C832.638 321.663 832.412 321.918 832.116 321.956L832.047 321.96L804.612 322.303C804.283 322.307 804.013 322.044 804.009 321.716C804.005 321.41 804.232 321.156 804.528 321.118L804.597 321.113L832.032 320.77Z" fill="#1B1A3B"/>
<path d="M690.387 196.279L690.396 196.279L690.385 196.218L690.381 196.126L690.391 196.032C690.396 196.007 690.406 195.98 690.44 195.887L690.496 195.796C690.633 195.583 690.697 195.587 691.271 195.626L691.546 195.967C691.582 196.016 691.574 196.018 691.56 196.02L691.581 196.145L691.707 196.962L691.734 197.124C691.879 198.004 692.045 198.852 692.239 199.647C692.35 200.103 692.467 200.524 692.589 200.905C694.509 206.89 699.12 212.231 706.489 217.39C712.428 221.548 719.875 225.462 730.585 230.266L732.573 231.15C736.731 232.977 754.008 240.359 759.996 243.023L760.534 243.263C773.597 249.123 783.682 254.366 792.577 260.212C803.334 267.283 811.788 274.951 818 283.678C818.19 283.945 818.128 284.317 817.86 284.508C817.592 284.698 817.221 284.636 817.03 284.368C810.912 275.773 802.566 268.202 791.923 261.207C783.25 255.507 773.421 250.375 760.753 244.667L759.113 243.933C752.598 241.048 735.075 233.562 731.733 232.081L730.093 231.35C719.322 226.519 711.819 222.575 705.806 218.365C698.243 213.07 693.467 207.537 691.455 201.269C691.324 200.859 691.2 200.411 691.082 199.929C690.921 199.267 690.779 198.573 690.652 197.858L690.532 197.152L690.402 196.313L690.398 196.307C690.384 196.287 690.381 196.28 690.387 196.279Z" fill="#1B1A3B"/>
<path d="M820.552 281.047C820.789 280.82 821.166 280.827 821.394 281.064C821.621 281.301 821.614 281.678 821.377 281.905C820.804 282.456 819.849 283.184 818.233 284.325L813.672 287.494C813.212 287.816 812.791 288.112 812.383 288.401L811.978 288.69C810.795 289.533 809.749 290.304 808.796 291.038L808.336 291.394C804.725 294.22 802.658 296.422 802.423 297.849L802.41 297.937L802.386 298.05C801.919 299.52 802.006 300.88 802.655 302.275C803.802 304.913 804.288 307.479 804.744 312.042C805.012 315.002 805.149 318.072 805.199 321.701C805.248 325.497 808.312 328.68 812.155 328.88L812.335 328.887L831.999 329.346C832.328 329.354 832.588 329.626 832.58 329.955C832.573 330.26 832.337 330.506 832.041 330.534L831.971 330.536L812.305 330.077C807.737 329.951 804.067 326.209 804.009 321.717C803.96 318.117 803.824 315.075 803.559 312.154L803.486 311.451C803.063 307.447 802.589 305.108 801.569 302.763C800.833 301.18 800.704 299.582 801.186 297.908L801.235 297.741L801.243 297.689C801.535 295.796 803.796 293.409 807.826 290.283L808.07 290.095L808.728 289.593C809.512 289.001 810.358 288.383 811.286 287.721L812.322 286.987C812.752 286.685 813.207 286.367 813.715 286.014L816.94 283.778L817.899 283.103C819.252 282.14 820.076 281.505 820.552 281.047Z" fill="#1B1A3B"/>
<path fill-rule="evenodd" clip-rule="evenodd" d="M919.419 106.503C927.875 101.057 941.466 101.263 939.595 109.55C938.957 111.607 937.203 113.514 934.757 113.816C927.395 113.869 921.917 112.935 914.204 118.918C911.77 120.719 910.359 121.116 909.753 120.659C908.563 116.23 915.045 109.525 919.419 106.503Z" fill="#0F0F21"/>
<path fill-rule="evenodd" clip-rule="evenodd" d="M906.753 156.086C898.931 160.541 882.84 131.873 879.904 127.417C891.326 116.188 905.278 103.589 918.034 96.3427C929.344 90.6068 937.014 86.3165 940.449 90.6586C941.43 92.0464 941.622 93.9717 940.275 95.4952C936.888 98.6678 929.952 103.606 925.575 107.753C919.26 113.549 913.681 120.093 915.834 126.268C917.133 129.995 919.384 131.236 921.96 131.2C926.612 131.433 933.204 124.648 936.683 130.115C943.428 138.674 911.877 149.298 906.753 156.086Z" fill="#0F0F21"/>
<path fill-rule="evenodd" clip-rule="evenodd" d="M911.064 152.258C913.659 144.606 915.801 136.993 917.61 129.418C914.851 126.949 914.773 120.274 917.67 116.651C913.687 112.292 909.678 107.976 905.63 103.693C898.374 109.689 888.622 116.675 882.862 124.547C878.817 133.211 903.769 148.317 911.064 152.258Z" fill="#C0C2EE"/>
<path fill-rule="evenodd" clip-rule="evenodd" d="M911.064 152.258L883.145 124.63C867.897 138.033 852.035 152.952 831.761 156.703C807.211 158.907 785.915 143.124 767.933 127.571C756.913 118.503 744.554 107.739 729.447 119.215C701.497 141.8 751.399 174.093 770.455 184.879C785.224 193.013 801.468 198.862 818.558 199.893C855.498 202.418 887.517 178.113 911.064 152.258Z" fill="#C0C2EE"/>
<path fill-rule="evenodd" clip-rule="evenodd" d="M834.053 173.561L831.76 156.702C822.085 158.001 812.306 155.553 802.994 151.312C801.433 156.892 790.917 170.072 797.787 175.228C804.454 179.482 835.684 188.355 834.053 173.561Z" fill="#0F0F21"/>
<path fill-rule="evenodd" clip-rule="evenodd" d="M847.869 166.833L849.029 169.809C859.858 163.363 869.027 154.516 877.252 145.018L872.195 139.457C865.36 149.629 857.579 159.276 847.869 166.833Z" fill="#0F0F21"/>
<path fill-rule="evenodd" clip-rule="evenodd" d="M887.758 129.195L882.863 124.547C878.5 128.722 874.03 132.674 869.462 136.239L877.252 145.018C880.9 140.089 884.606 134.453 887.758 129.195Z" fill="#0F0F21"/>
<path fill-rule="evenodd" clip-rule="evenodd" d="M846.875 193.626L844.305 183.837C800.451 195.098 760.365 162.75 732.94 132.118C728.572 126.962 720.61 133.553 725.326 138.784C755.018 172.29 799.202 206.15 846.875 193.626Z" fill="#0F0F21"/>
<path fill-rule="evenodd" clip-rule="evenodd" d="M766.202 196.082H640.146V137.982C640.146 124.015 651.469 112.692 665.436 112.692H740.913C754.88 112.692 766.202 124.015 766.202 137.982V196.082Z" fill="#D8D9F4"/>
<mask id="mask3" mask-type="alpha" maskUnits="userSpaceOnUse" x="578" y="88" width="364" height="261">
<path fill-rule="evenodd" clip-rule="evenodd" d="M578.946 348.253H941.235V88.8832H578.946V348.253Z" fill="white"/>
</mask>
<g mask="url(#mask3)">
<path fill-rule="evenodd" clip-rule="evenodd" d="M653.527 196.148H680.976V141.73H653.527V196.148Z" fill="#1B1A3B"/>
<path fill-rule="evenodd" clip-rule="evenodd" d="M740.231 196.694C740.2 196.694 740.169 196.692 740.137 196.687C739.812 196.635 739.592 196.33 739.643 196.005C739.716 195.55 746.936 150.326 749.164 134.709C750.043 128.54 751.239 120.153 747.884 116.286C746.658 114.871 744.928 114.184 742.598 114.184C742.268 114.184 742.002 113.917 742.002 113.588C742.002 113.26 742.268 112.993 742.598 112.993C745.256 112.993 747.337 113.839 748.783 115.506C752.494 119.783 751.254 128.482 750.348 134.833C748.113 150.504 740.891 195.738 740.818 196.193C740.772 196.486 740.519 196.694 740.231 196.694Z" fill="#1B1A3B"/>
<path fill-rule="evenodd" clip-rule="evenodd" d="M718.622 196.694C718.367 196.694 718.132 196.53 718.053 196.274C717.917 195.828 704.329 151.53 698.026 135.005C695.256 127.745 685.881 114.184 675.759 114.184C675.43 114.184 675.164 113.918 675.164 113.588C675.164 113.26 675.43 112.993 675.759 112.993C686.461 112.993 696.267 127.053 699.138 134.581C705.456 151.142 719.055 195.479 719.191 195.925C719.288 196.239 719.111 196.572 718.797 196.668C718.738 196.686 718.68 196.694 718.622 196.694Z" fill="#1B1A3B"/>
<path fill-rule="evenodd" clip-rule="evenodd" d="M741.248 149.429H714.267C713.913 149.429 713.594 149.221 713.451 148.898C713.412 148.809 709.449 139.9 704.062 131.117C697.067 119.713 690.911 113.686 686.26 113.686C685.767 113.686 685.367 113.286 685.367 112.793C685.367 112.299 685.767 111.9 686.26 111.9C698.186 111.9 712.734 142.989 714.845 147.644H740.525C740.914 145.763 741.976 140.329 742.544 134.359C743.455 124.783 742.718 118.201 740.412 115.323C739.528 114.221 738.428 113.686 737.046 113.686C736.553 113.686 736.153 113.286 736.153 112.793C736.153 112.299 736.553 111.9 737.046 111.9C738.977 111.9 740.579 112.676 741.806 114.207C748.007 121.947 742.363 147.641 742.12 148.731C742.029 149.139 741.666 149.429 741.248 149.429Z" fill="#1B1A3B"/>
<path fill-rule="evenodd" clip-rule="evenodd" d="M702.249 196.975C701.849 196.975 701.485 196.705 701.383 196.3L694.626 169.394L680.342 155.017C679.994 154.667 679.997 154.101 680.346 153.754C680.697 153.406 681.261 153.409 681.609 153.758L696.066 168.31C696.179 168.423 696.259 168.566 696.299 168.721L703.115 195.865C703.235 196.343 702.945 196.828 702.466 196.948C702.394 196.966 702.321 196.975 702.249 196.975Z" fill="#C0C2EE"/>
<path fill-rule="evenodd" clip-rule="evenodd" d="M749.588 196.975C749.516 196.975 749.443 196.966 749.37 196.948C748.892 196.828 748.602 196.343 748.721 195.865L755.539 168.721C755.565 168.614 755.612 168.513 755.676 168.423L765.967 153.872C766.251 153.469 766.807 153.374 767.21 153.659C767.613 153.943 767.709 154.5 767.424 154.903L757.23 169.318L750.453 196.3C750.351 196.705 749.988 196.975 749.588 196.975Z" fill="#C0C2EE"/>
<path fill-rule="evenodd" clip-rule="evenodd" d="M674.072 346.272C672.409 348.716 668.488 348.938 665.383 346.716C659.563 341.262 628.719 323.044 634.993 314.95C637.349 312.566 641.159 313.401 643.615 315.582C652.56 323.61 661.926 331.026 671.627 338.011C674.618 340.152 675.738 343.825 674.072 346.272Z" fill="#1B1A3B"/>
<path fill-rule="evenodd" clip-rule="evenodd" d="M686.234 342.924C680.791 350.583 665.939 334.147 660.2 330.957C657.267 328.682 656.451 324.915 658.319 322.624C660.19 320.33 663.949 320.308 666.775 322.499C672.277 326.786 677.917 330.889 683.687 334.819C686.64 336.831 687.805 340.419 686.234 342.924Z" fill="#1B1A3B"/>
<path fill-rule="evenodd" clip-rule="evenodd" d="M692.538 335.643C691.017 338.186 687.217 338.636 684.218 336.618C679.447 332.191 659.854 323.603 665.418 316.118C667.272 313.823 670.979 313.714 673.726 315.842C679.098 319.969 684.596 323.961 690.192 327.726C693.061 329.657 694.102 333.136 692.538 335.643Z" fill="#1B1A3B"/>
<path fill-rule="evenodd" clip-rule="evenodd" d="M681.162 309.537C675.288 316.732 663.023 300.538 657.723 297.065C655.79 295.784 655.232 288.977 655.451 287.581C658.144 289.925 661.535 286.77 664.494 289.056C669.654 292.931 674.399 297.657 679.645 301.584C682.244 303.64 682.944 307.177 681.162 309.537Z" fill="#1B1A3B"/>
<path fill-rule="evenodd" clip-rule="evenodd" d="M693.084 324.646C691.453 327.118 687.773 327.543 684.899 325.537C675.312 318.8 666.049 311.552 657.264 303.833C654.848 301.709 654.038 298.074 656.21 295.667C658.384 293.375 662.021 293.716 664.344 295.794C672.8 303.223 681.784 310.255 691.045 316.763C693.8 318.686 694.717 322.183 693.084 324.646Z" fill="#1B1A3B"/>
<path fill-rule="evenodd" clip-rule="evenodd" d="M671.003 326.481C663.33 336.308 648.834 334.506 639.543 326.287C622.556 310.838 606.27 293.08 594.773 272.413C586.339 257.335 580.295 238.615 581.693 220.906C583.019 202.982 590.207 186.94 599.497 172.606C611.114 154.796 626.127 139.525 641.932 125.987C649.861 118.93 660.198 115.687 667.433 124.855C673.872 133.231 672.985 145.266 665.701 152.635C646.216 170.655 625.93 191.416 620.082 217.797C616.209 243.664 635.287 265.483 652.157 283.483C656.485 287.868 661.036 292.12 665.752 296.236C673.923 304.111 677.81 317.009 671.003 326.481Z" fill="#D8D9F4"/>
<path fill-rule="evenodd" clip-rule="evenodd" d="M651.74 283.894L624.059 311.221C593.666 278.901 566.59 238.969 585.546 193.338C596.366 165.588 616.583 143.579 638.141 124.305C649.254 114.156 666.362 104.524 677.578 120.64C691.111 140.379 669.29 151.923 655.929 166.238C642.439 179.776 626.61 198.137 622.1 217.638C617.324 243.261 635.842 265.763 651.74 283.894Z" fill="#D8D9F4"/>
<path fill-rule="evenodd" clip-rule="evenodd" d="M622.72 237.179L619.967 238.005C621.098 250.286 626.327 262.773 632.493 273.95C638.916 277.549 645.493 280.68 652.157 283.483C639.706 270.144 627.778 254.784 622.72 237.179Z" fill="#1B1A3B"/>
<path fill-rule="evenodd" clip-rule="evenodd" d="M585.68 248.288L582.987 249.096C588.351 265.881 597.557 280.148 608.291 293.23L614.107 288.597C602.467 276.991 592.29 264.12 585.68 248.288Z" fill="#1B1A3B"/>
<path fill-rule="evenodd" clip-rule="evenodd" d="M591.79 223.742L578.946 223.454C579.475 202.905 587.576 184.568 598.102 168.331C604.892 173.195 616.381 176.798 610.424 187.524C605.802 195.869 602.104 204.881 600.38 214.439C599.616 218.738 596.55 223.67 591.79 223.742Z" fill="#1B1A3B"/>
<path fill-rule="evenodd" clip-rule="evenodd" d="M608.285 293.234L639.007 268.761C643.043 273.821 647.47 278.732 652.157 283.482L624.059 311.221C618.581 305.571 613.288 299.616 608.285 293.234Z" fill="#1B1A3B"/>
<path fill-rule="evenodd" clip-rule="evenodd" d="M655.18 164.675L626.827 136.638C639.642 124.932 657.937 103.103 673.993 122.506C686.928 142.864 667.1 151.894 655.18 164.675Z" fill="#1B1A3B"/>
<path fill-rule="evenodd" clip-rule="evenodd" d="M724.564 147.487C724.293 147.487 724.048 147.3 723.985 147.024C720.791 133.052 713.871 124.618 708.629 120.002C702.942 114.997 697.944 113.273 697.894 113.256C697.582 113.151 697.414 112.814 697.52 112.503C697.625 112.191 697.962 112.023 698.273 112.128C698.479 112.197 718.88 119.347 725.145 146.759C725.218 147.079 725.018 147.399 724.698 147.472C724.652 147.482 724.608 147.487 724.564 147.487Z" fill="#C0C2EE"/>
<path fill-rule="evenodd" clip-rule="evenodd" d="M734.981 147.487C734.71 147.487 734.464 147.3 734.401 147.024C728.161 119.719 731.628 112.7 731.779 112.414C731.933 112.124 732.292 112.012 732.583 112.166C732.872 112.319 732.984 112.676 732.834 112.966C732.785 113.066 729.478 120.143 735.562 146.759C735.635 147.079 735.434 147.399 735.114 147.472C735.069 147.482 735.025 147.487 734.981 147.487Z" fill="#C0C2EE"/>
</g>
<path fill-rule="evenodd" clip-rule="evenodd" d="M725.861 105.033H722.893C709.067 105.033 697.859 93.8252 697.859 79.9992V68.256C697.859 57.6716 706.439 49.091 717.024 49.091H720.353C730.937 49.091 739.518 57.6716 739.518 68.256V91.3763C739.518 98.919 733.403 105.033 725.861 105.033Z" fill="#8687AD"/>
<path fill-rule="evenodd" clip-rule="evenodd" d="M705 83.9062C705 88.015 701.669 91.3453 697.561 91.3453C693.453 91.3453 690.122 88.015 690.122 83.9062C690.122 79.7974 693.453 76.467 697.561 76.467C701.669 76.467 705 79.7974 705 83.9062Z" fill="#8687AD"/>
<path d="M696.113 81.626C696.113 81.626 699.412 81.626 699.412 84.9242" stroke="black" stroke-width="3"/>
<path fill-rule="evenodd" clip-rule="evenodd" d="M697.264 76.4671H696.35C692.866 73.0796 691.527 66.1761 691.124 59.4755C690.571 50.2932 706.513 42.5446 715.712 42.5446H726.416L736.542 58.018H713.151C713.151 68.1353 704.405 76.4671 697.264 76.4671Z" fill="black"/>
<path fill-rule="evenodd" clip-rule="evenodd" d="M709.857 57.612L724.277 61.9547C730.078 63.7014 736.197 60.4151 737.943 54.6144L739.304 50.092C739.985 47.8352 738.706 45.4541 736.449 44.7745L724.166 41.0757C716.526 38.7755 708.468 43.1033 706.168 50.743C705.29 53.6586 706.942 56.7342 709.857 57.612Z" fill="black"/>
<path fill-rule="evenodd" clip-rule="evenodd" d="M727.078 123.482H717.039C709.171 123.482 700.919 119.202 697.96 112.767C697.96 112.767 697.859 107.858 697.859 105.271V101.093C697.859 99.8915 698.885 98.9172 700.151 98.9172H734.529C735.795 98.9172 736.822 99.8915 736.822 101.093V114.231C736.822 119.34 732.46 123.482 727.078 123.482Z" fill="black"/>
<path fill-rule="evenodd" clip-rule="evenodd" d="M742.526 107.742C740.429 112.838 735.181 116.166 729.376 116.166H724.841C711.294 116.166 703.326 110.569 695.163 104.057C695.163 104.057 690.059 99.1471 686.46 89.8119C681.956 78.1271 679.057 60.9295 682.841 54.0088C686.685 46.9797 696.9 33 711.729 33C733.145 33 748.95 44.5593 748.95 64.7378L745.848 90.5689C745.848 94.786 744.242 103.574 742.526 107.742Z" fill="#D8D9F4"/>
<path fill-rule="evenodd" clip-rule="evenodd" d="M691.964 68.3164C691.964 68.3164 698.549 43.3554 725.191 43.3554C739.42 43.3554 747.307 54.4927 748.54 68.1468L745.848 90.5684C745.848 90.5684 738.735 118.237 703.321 94.3189C702.241 93.5893 701.571 92.4276 701.191 91.2272L691.964 68.3164Z" fill="#1B1A3B"/>
<path d="M707.376 60.6228L713.08 77.0621" stroke="white" stroke-width="7" stroke-linecap="round" stroke-linejoin="round" stroke-dasharray="12 12"/>
<path d="M940.627 62.9686H800.717V181.103H940.627V62.9686Z" fill="#8B89E8"/>
<path d="M814.871 62.9686H800.717V181.103H814.871V62.9686Z" fill="#ADB1F0"/>
<path d="M854.068 203.423H743.555V211.589H854.068V203.423Z" fill="#9594EA"/>
<path d="M780.574 203.423H743.555V211.589H780.574V203.423Z" fill="#EAEAF9"/>
<path d="M956.414 211.044H673.328V231.731H956.414V211.044Z" fill="#8B89E8"/>
<path d="M768.053 211.044H673.328V231.731H768.053V211.044Z" fill="#ADB1F0"/>
<path d="M813.238 211.044H673.328V231.731H813.238V211.044Z" fill="#D4D5F3"/>
<path fill-rule="evenodd" clip-rule="evenodd" d="M682.038 231.731H700.548L652.641 444.046H642.842L682.038 231.731Z" fill="#ADB1F0"/>
<path fill-rule="evenodd" clip-rule="evenodd" d="M812.149 231.731H793.64L841.546 444.046H851.346L812.149 231.731Z" fill="#ADB1F0"/>
<path fill-rule="evenodd" clip-rule="evenodd" d="M950.426 231.731H931.916L979.823 444.046H989.622L950.426 231.731Z" fill="#ADB1F0"/>
<path d="M908.507 108.154H874.21V211.044H908.507V108.154Z" fill="#5957B2"/>
<path d="M884.009 108.154H874.21V211.044H884.009V108.154Z" fill="#ADB1F0"/>
</g>
</g>
</svg>
